<svg xmlns="http://www.w3.org/2000/svg" xmlns:xlink="http://www.w3.org/1999/xlink" width="793" zoomAndPan="magnify" viewBox="0 0 595.5 842.249979" height="1122" preserveAspectRatio="xMidYMid meet" version="1.0"><defs><clipPath id="23db0a3c13"><path d="M 526 473 L 594.984375 473 L 594.984375 511 L 526 511 Z M 526 473 " clip-rule="nonzero"/></clipPath><clipPath id="71c2cd81c0"><path d="M 11.566406 473 L 80 473 L 80 511 L 11.566406 511 Z M 11.566406 473 " clip-rule="nonzero"/></clipPath></defs><path fill="#1f4272" d="M 247.09375 159.257812 C 239.253906 171.347656 233.9375 185.636719 234.613281 200.1875 C 235.285156 214.511719 242.71875 227.335938 245.5625 241.191406 C 249.003906 257.953125 243.285156 268.625 231.84375 280.382812 C 223.40625 289.054688 216.171875 304.902344 218.035156 317.191406 C 219.824219 328.984375 233.371094 333.597656 234.476562 344.824219 C 235.503906 355.304688 224.953125 364.8125 233.324219 374.253906 C 241.59375 383.582031 255.453125 382.433594 266.554688 381.636719 C 285.027344 380.304688 303.6875 380.070312 322.09375 381.636719 C 335.835938 382.804688 347.949219 380.5 357.429688 369.8125 C 366.4375 359.65625 367.328125 347.121094 361.921875 335.109375 C 356.621094 323.328125 343.042969 308.019531 349.574219 294.160156 C 355.308594 281.980469 366.472656 280.707031 366.671875 265.257812 C 366.898438 247.972656 354.734375 238.355469 345.117188 225.789062 C 331.570312 208.078125 351.472656 201.179688 352.21875 185.035156 C 352.761719 173.3125 343.007812 151.851562 335.007812 144.269531 C 323.296875 133.15625 295.957031 130.558594 282.105469 135.464844 C 267.421875 140.660156 255.144531 146.839844 247.09375 159.257812 " fill-opacity="1" fill-rule="nonzero"/><path fill="#1f4272" d="M 284.429688 258.929688 C 296.859375 264.34375 311.082031 264.6875 323.257812 256.75 C 328.957031 253.035156 335.011719 247.804688 339.1875 242.40625 C 360.265625 215.164062 358.71875 173.277344 340.457031 148.03125 C 323.980469 125.246094 288.800781 126.597656 268.402344 143.652344 C 261.421875 149.484375 254.980469 158.335938 251.597656 166.554688 C 242.863281 187.792969 246.953125 221.003906 262.757812 241.847656 C 268.347656 249.214844 275.972656 255.25 284.429688 258.929688 " fill-opacity="1" fill-rule="nonzero"/><path fill="#f8a18f" d="M 282.089844 293.734375 L 322.96875 293.734375 C 313.574219 278.511719 320.949219 257.957031 322.027344 255.15625 L 283.03125 255.15625 C 284.113281 257.957031 291.488281 278.511719 282.089844 293.734375 " fill-opacity="1" fill-rule="nonzero"/><path fill="#f68373" d="M 318.273438 274.914062 C 318.375 265.214844 321.367188 256.867188 322.027344 255.15625 L 283.03125 255.15625 C 283.691406 256.867188 286.683594 265.214844 286.785156 274.914062 C 286.785156 274.914062 301.730469 291.53125 318.273438 274.914062 " fill-opacity="1" fill-rule="nonzero"/><path fill="#f8a18f" d="M 330.246094 249.828125 C 338.339844 243.449219 338.882812 234.804688 338.882812 234.804688 C 340.210938 220.605469 340.847656 215.917969 341.910156 208.667969 C 346.453125 177.5625 324.050781 151.726562 301.804688 151.394531 C 279.558594 151.726562 257.160156 177.5625 261.703125 208.667969 C 262.765625 215.917969 263.398438 220.605469 264.730469 234.804688 C 264.730469 234.804688 265.703125 242.691406 273.363281 249.828125 C 273.363281 249.828125 284.882812 261.269531 296.890625 265.679688 C 296.890625 265.679688 298.832031 266.367188 301.804688 266.425781 C 304.773438 266.367188 306.722656 265.679688 306.722656 265.679688 C 306.722656 265.679688 324.09375 256.570312 330.246094 249.828125 " fill-opacity="1" fill-rule="nonzero"/><path fill="#172345" d="M 317.75 193.382812 C 319.277344 192.34375 320.761719 191.949219 322.144531 191.945312 C 324.1875 191.9375 326.015625 192.871094 327.066406 194.097656 C 327.683594 194.8125 328.761719 194.886719 329.476562 194.269531 C 330.191406 193.652344 330.269531 192.574219 329.652344 191.859375 C 327.917969 189.859375 325.203125 188.53125 322.144531 188.527344 C 320.085938 188.523438 317.878906 189.148438 315.820312 190.5625 C 315.039062 191.09375 314.84375 192.15625 315.375 192.9375 C 315.90625 193.714844 316.972656 193.914062 317.75 193.382812 " fill-opacity="1" fill-rule="nonzero"/><path fill="#172345" d="M 289.601562 190.5625 C 287.542969 189.148438 285.335938 188.523438 283.277344 188.527344 C 280.214844 188.53125 277.5 189.859375 275.765625 191.859375 C 275.148438 192.578125 275.226562 193.65625 275.945312 194.273438 C 276.660156 194.886719 277.738281 194.8125 278.355469 194.09375 C 279.402344 192.871094 281.234375 191.9375 283.277344 191.945312 C 284.65625 191.949219 286.144531 192.34375 287.671875 193.382812 C 288.445312 193.914062 289.511719 193.714844 290.046875 192.9375 C 290.578125 192.15625 290.378906 191.09375 289.601562 190.5625 " fill-opacity="1" fill-rule="nonzero"/><path fill="#f57c6e" d="M 300.242188 208.667969 C 300.242188 210.207031 300.238281 211.335938 300.183594 212.140625 C 300.140625 212.75 300.070312 213.164062 299.980469 213.445312 C 299.835938 213.863281 299.714844 214.042969 299.273438 214.4375 C 298.835938 214.816406 298.085938 215.308594 296.996094 216.027344 C 296.308594 216.484375 295.789062 216.894531 295.378906 217.351562 C 295.175781 217.578125 295.003906 217.820312 294.863281 218.109375 C 294.726562 218.390625 294.636719 218.722656 294.636719 219.074219 C 294.632812 219.75 294.988281 220.308594 295.324219 220.648438 C 295.925781 221.246094 296.601562 221.5625 297.328125 221.953125 C 298.414062 222.507812 299.601562 223.121094 300.457031 223.953125 C 300.882812 224.367188 301.230469 224.824219 301.476562 225.363281 C 301.726562 225.90625 301.878906 226.535156 301.878906 227.351562 C 301.878906 228.078125 302.46875 228.667969 303.199219 228.667969 C 303.929688 228.667969 304.519531 228.078125 304.519531 227.351562 C 304.523438 225.582031 303.960938 224.109375 303.125 223 C 301.867188 221.332031 300.140625 220.445312 298.855469 219.769531 C 298.214844 219.4375 297.671875 219.160156 297.394531 218.953125 L 297.242188 218.832031 L 297.199219 218.789062 L 297.121094 218.859375 L 297.207031 218.800781 L 297.199219 218.789062 L 297.121094 218.859375 L 297.207031 218.800781 L 296.773438 219.074219 L 297.277344 219.074219 L 297.207031 218.800781 L 296.773438 219.074219 L 297.277344 219.074219 L 296.886719 219.074219 L 297.246094 219.242188 L 297.277344 219.074219 L 296.886719 219.074219 L 297.246094 219.242188 L 297.300781 219.164062 C 297.425781 219.003906 297.800781 218.652344 298.453125 218.222656 C 299.40625 217.589844 300.136719 217.128906 300.761719 216.628906 C 301.230469 216.253906 301.648438 215.84375 301.980469 215.339844 C 302.484375 214.574219 302.695312 213.6875 302.785156 212.675781 C 302.882812 211.644531 302.878906 210.402344 302.878906 208.667969 C 302.878906 207.9375 302.289062 207.347656 301.558594 207.347656 C 300.832031 207.347656 300.242188 207.9375 300.242188 208.667969 " fill-opacity="1" fill-rule="nonzero"/><path fill="#f57c6e" d="M 293.558594 231.808594 C 294.246094 233.78125 295.75 235.222656 297.511719 236.132812 C 299.28125 237.046875 301.335938 237.480469 303.378906 237.484375 C 305.472656 237.480469 307.558594 237.027344 309.300781 236.027344 C 311.042969 235.046875 312.457031 233.4375 312.890625 231.289062 C 313.039062 230.578125 312.578125 229.878906 311.863281 229.734375 C 311.148438 229.585938 310.453125 230.046875 310.308594 230.761719 C 310.03125 232.058594 309.238281 233.015625 307.992188 233.742188 C 306.75 234.457031 305.082031 234.851562 303.378906 234.847656 C 301.722656 234.847656 300.042969 234.476562 298.730469 233.792969 C 297.402344 233.097656 296.46875 232.144531 296.046875 230.933594 C 295.804688 230.246094 295.050781 229.882812 294.367188 230.125 C 293.679688 230.363281 293.316406 231.117188 293.558594 231.808594 " fill-opacity="1" fill-rule="nonzero"/><path fill="#172345" d="M 323.898438 201.472656 C 323.898438 203.574219 322.195312 205.273438 320.09375 205.277344 C 317.992188 205.273438 316.296875 203.574219 316.289062 201.472656 C 316.289062 200.746094 315.703125 200.160156 314.976562 200.160156 C 314.25 200.160156 313.660156 200.746094 313.660156 201.472656 C 313.660156 205.027344 316.539062 207.90625 320.09375 207.90625 C 323.648438 207.90625 326.527344 205.027344 326.527344 201.472656 C 326.527344 200.746094 325.941406 200.160156 325.210938 200.160156 C 324.488281 200.160156 323.898438 200.746094 323.898438 201.472656 " fill-opacity="1" fill-rule="nonzero"/><path fill="#172345" d="M 287.316406 201.472656 C 287.3125 203.574219 285.613281 205.273438 283.511719 205.277344 C 281.414062 205.273438 279.710938 203.574219 279.707031 201.472656 C 279.707031 200.746094 279.121094 200.160156 278.394531 200.160156 C 277.667969 200.160156 277.078125 200.746094 277.078125 201.472656 C 277.078125 205.027344 279.957031 207.90625 283.511719 207.90625 C 287.066406 207.90625 289.949219 205.027344 289.949219 201.472656 C 289.949219 200.746094 289.359375 200.160156 288.632812 200.160156 C 287.90625 200.160156 287.316406 200.746094 287.316406 201.472656 " fill-opacity="1" fill-rule="nonzero"/><path fill="#f57984" d="M 332.273438 215.917969 C 332.273438 218.460938 328.199219 220.523438 323.171875 220.523438 C 318.148438 220.523438 314.078125 218.460938 314.078125 215.917969 C 314.078125 213.375 318.148438 211.316406 323.171875 211.316406 C 328.199219 211.316406 332.273438 213.375 332.273438 215.917969 " fill-opacity="1" fill-rule="nonzero"/><path fill="#f57984" d="M 290.402344 215.917969 C 290.402344 218.460938 286.328125 220.523438 281.304688 220.523438 C 276.28125 220.523438 272.203125 218.460938 272.203125 215.917969 C 272.203125 213.375 276.28125 211.316406 281.304688 211.316406 C 286.328125 211.316406 290.402344 213.375 290.402344 215.917969 " fill-opacity="1" fill-rule="nonzero"/><path fill="#f8a18f" d="M 380.890625 368.617188 C 390.28125 347.65625 388.058594 333.496094 388.058594 333.496094 C 383.238281 313.570312 353 306.667969 353 306.667969 C 322.808594 297.460938 319.511719 288.363281 319.511719 288.363281 L 285.546875 288.363281 C 285.546875 288.363281 282.25 297.460938 252.058594 306.667969 C 252.058594 306.667969 221.824219 313.570312 217 333.496094 C 217 333.496094 214.78125 347.65625 224.167969 368.617188 C 224.167969 368.617188 246.179688 424.808594 255.585938 451.109375 C 255.585938 451.109375 262.878906 467.769531 252.058594 494.074219 L 236.910156 530.019531 L 368.148438 530.019531 L 353 494.074219 C 342.179688 467.769531 349.472656 451.109375 349.472656 451.109375 C 358.882812 424.808594 380.890625 368.617188 380.890625 368.617188 " fill-opacity="1" fill-rule="nonzero"/><path fill="#546996" d="M 378.589844 546.917969 C 370.6875 532.21875 360.132812 511 360.132812 511 C 358.875 522.957031 307.964844 523.613281 300.789062 523.675781 C 293.953125 523.613281 249.496094 522.84375 244.726562 511.472656 C 244.726562 511.472656 233.015625 532.324219 225.574219 546.917969 C 225.574219 546.917969 210.953125 581.660156 299.851562 587.425781 L 299.851562 587.546875 C 300.160156 587.53125 300.460938 587.503906 300.769531 587.488281 C 301.078125 587.503906 301.371094 587.53125 301.683594 587.546875 L 301.683594 587.425781 C 390.617188 581.660156 378.589844 546.917969 378.589844 546.917969 " fill-opacity="1" fill-rule="nonzero"/><path fill="#f8a18f" d="M 351.488281 222.3125 C 350.832031 228.308594 346.628906 232.761719 342.101562 232.265625 C 337.574219 231.769531 334.4375 226.507812 335.097656 220.515625 C 335.753906 214.527344 339.957031 210.070312 344.480469 210.566406 C 349.007812 211.0625 352.148438 216.324219 351.488281 222.3125 " fill-opacity="1" fill-rule="nonzero"/><path fill="#f57c6e" d="M 343.582031 216.84375 C 343.988281 217.039062 344.332031 217.40625 344.605469 218.039062 C 344.875 218.660156 345.027344 219.503906 345.023438 220.410156 C 345.027344 221.464844 344.824219 222.59375 344.46875 223.550781 C 344.117188 224.503906 343.601562 225.265625 343.113281 225.640625 C 342.542969 226.09375 342.445312 226.925781 342.898438 227.496094 C 343.351562 228.066406 344.179688 228.164062 344.75 227.710938 C 345.773438 226.894531 346.464844 225.738281 346.941406 224.46875 C 347.414062 223.195312 347.664062 221.789062 347.664062 220.410156 C 347.664062 219.222656 347.476562 218.050781 347.03125 216.996094 C 346.589844 215.953125 345.832031 214.992188 344.710938 214.460938 C 344.050781 214.152344 343.261719 214.433594 342.953125 215.089844 C 342.644531 215.75 342.921875 216.535156 343.582031 216.84375 " fill-opacity="1" fill-rule="nonzero"/><path fill="#f57c6e" d="M 341.949219 221.433594 C 342.324219 221.367188 342.777344 221.320312 343.226562 221.320312 C 343.683594 221.316406 344.132812 221.371094 344.488281 221.46875 C 344.847656 221.566406 345.089844 221.710938 345.21875 221.839844 C 345.734375 222.355469 346.566406 222.355469 347.082031 221.835938 C 347.597656 221.320312 347.597656 220.488281 347.078125 219.972656 C 346.523438 219.421875 345.851562 219.109375 345.191406 218.925781 C 344.53125 218.746094 343.863281 218.683594 343.226562 218.683594 C 342.597656 218.683594 342.007812 218.746094 341.480469 218.839844 C 340.761719 218.96875 340.289062 219.65625 340.417969 220.371094 C 340.546875 221.085938 341.234375 221.5625 341.953125 221.433594 L 341.949219 221.433594 " fill-opacity="1" fill-rule="nonzero"/><path fill="#f8a18f" d="M 252.992188 222.3125 C 253.648438 228.308594 257.851562 232.761719 262.378906 232.265625 C 266.902344 231.769531 270.039062 226.507812 269.382812 220.515625 C 268.726562 214.527344 264.523438 210.070312 259.996094 210.566406 C 255.46875 211.0625 252.332031 216.324219 252.992188 222.3125 " fill-opacity="1" fill-rule="nonzero"/><path fill="#f57c6e" d="M 259.769531 214.460938 C 258.648438 214.992188 257.890625 215.953125 257.449219 216.996094 C 256.996094 218.050781 256.816406 219.222656 256.816406 220.410156 C 256.816406 221.789062 257.066406 223.195312 257.535156 224.46875 C 258.015625 225.738281 258.703125 226.894531 259.730469 227.710938 C 260.300781 228.164062 261.128906 228.066406 261.582031 227.496094 C 262.035156 226.925781 261.9375 226.09375 261.363281 225.640625 C 260.878906 225.265625 260.359375 224.503906 260.011719 223.550781 C 259.652344 222.59375 259.453125 221.464844 259.453125 220.410156 C 259.453125 219.503906 259.605469 218.660156 259.871094 218.039062 C 260.144531 217.410156 260.488281 217.039062 260.898438 216.84375 C 261.554688 216.535156 261.835938 215.75 261.523438 215.089844 C 261.214844 214.433594 260.425781 214.152344 259.769531 214.460938 " fill-opacity="1" fill-rule="nonzero"/><path fill="#f57c6e" d="M 262.996094 218.839844 C 262.476562 218.746094 261.878906 218.683594 261.25 218.683594 C 260.613281 218.683594 259.945312 218.746094 259.285156 218.925781 C 258.625 219.109375 257.953125 219.421875 257.398438 219.972656 C 256.882812 220.488281 256.882812 221.324219 257.398438 221.839844 C 257.914062 222.355469 258.746094 222.355469 259.265625 221.839844 C 259.386719 221.710938 259.632812 221.566406 259.988281 221.46875 C 260.34375 221.371094 260.796875 221.316406 261.25 221.320312 C 261.699219 221.320312 262.15625 221.367188 262.527344 221.433594 C 263.246094 221.5625 263.929688 221.085938 264.0625 220.371094 C 264.191406 219.65625 263.714844 218.96875 263 218.839844 L 262.996094 218.839844 " fill-opacity="1" fill-rule="nonzero"/><path fill="#f8a18f" d="M 211.929688 344.140625 C 201.882812 376.125 184.429688 426.394531 175.144531 457.214844 C 175.144531 457.214844 193.734375 492.65625 201.421875 480.015625 C 221.613281 446.808594 222.464844 441.585938 253.191406 365.964844 C 253.191406 365.964844 265.445312 330.566406 241.140625 310.902344 C 241.140625 310.902344 221.589844 314.015625 211.929688 344.140625 " fill-opacity="1" fill-rule="nonzero"/><path fill="#f8a18f" d="M 394.574219 344.140625 C 404.621094 376.125 422.074219 426.394531 431.355469 457.214844 C 431.355469 457.214844 412.769531 492.65625 405.082031 480.015625 C 384.886719 446.808594 384.035156 441.585938 353.308594 365.964844 C 353.308594 365.964844 341.058594 330.566406 365.363281 310.902344 C 365.363281 310.902344 384.914062 314.015625 394.574219 344.140625 " fill-opacity="1" fill-rule="nonzero"/><path fill="#f8a18f" d="M 533.585938 496.335938 C 533.585938 496.335938 448.066406 490.800781 407.671875 482.738281 C 407.671875 482.738281 395.707031 467.855469 383.359375 439.382812 C 383.359375 439.382812 401.746094 441.292969 427.113281 446.464844 C 427.113281 446.464844 514.289062 476.976562 538.246094 483.753906 L 533.585938 496.335938 " fill-opacity="1" fill-rule="nonzero"/><g clip-path="url(#23db0a3c13)"><path fill="#f8a18f" d="M 580.308594 482.464844 C 580.1875 475.5625 570.492188 475.503906 566.6875 474.429688 C 566.6875 474.429688 564.652344 478.304688 571.699219 480.625 L 568.117188 483.679688 L 552.21875 483.167969 C 553.882812 481.03125 556.207031 479.34375 556.207031 479.34375 C 554.839844 479.113281 564.953125 480.554688 566.6875 474.429688 C 562.914062 473.21875 556.480469 472.921875 551.574219 473.746094 C 547.203125 474.175781 538.242188 483.753906 538.242188 483.753906 L 529.191406 484.214844 L 526.980469 495.433594 L 534.335938 498.628906 C 541.378906 506.003906 559.003906 508.863281 559.003906 508.863281 C 562.84375 510.34375 576.683594 511.613281 579.957031 508.628906 C 579.214844 505.632812 571.363281 504.636719 562.164062 501.554688 C 571.902344 503.109375 588.199219 507.4375 591.007812 503.035156 C 589.957031 499.15625 570.667969 498.0625 563.421875 496.910156 C 567.949219 496.515625 594.550781 500.582031 594.734375 496.585938 C 593.75 492.363281 570.75 491.222656 570.542969 491.242188 L 580.308594 482.464844 " fill-opacity="1" fill-rule="nonzero"/></g><path fill="#f8a18f" d="M 73.019531 496.335938 C 73.019531 496.335938 158.542969 490.800781 198.9375 482.738281 C 198.9375 482.738281 201.261719 484.394531 223.246094 439.382812 C 223.246094 439.382812 204.859375 441.292969 179.496094 446.464844 C 179.496094 446.464844 92.320312 476.976562 68.363281 483.753906 L 73.019531 496.335938 " fill-opacity="1" fill-rule="nonzero"/><g clip-path="url(#71c2cd81c0)"><path fill="#f8a18f" d="M 26.304688 482.464844 C 26.421875 475.5625 36.117188 475.503906 39.921875 474.433594 C 39.921875 474.433594 41.957031 478.304688 34.910156 480.625 L 38.492188 483.679688 L 54.390625 483.167969 C 52.726562 481.03125 50.402344 479.34375 50.402344 479.34375 C 51.773438 479.113281 41.65625 480.554688 39.921875 474.433594 C 43.699219 473.222656 50.125 472.921875 55.035156 473.746094 C 59.402344 474.175781 68.363281 483.753906 68.363281 483.753906 L 77.417969 484.214844 L 79.625 495.433594 L 72.273438 498.628906 C 65.230469 506.003906 47.605469 508.863281 47.605469 508.863281 C 43.765625 510.34375 29.925781 511.613281 26.652344 508.628906 C 27.394531 505.632812 35.246094 504.636719 44.445312 501.554688 C 34.707031 503.109375 18.410156 507.4375 15.601562 503.039062 C 16.648438 499.15625 35.9375 498.066406 43.1875 496.910156 C 38.65625 496.515625 12.058594 500.582031 11.875 496.589844 C 12.855469 492.363281 35.855469 491.226562 36.066406 491.242188 L 26.304688 482.464844 " fill-opacity="1" fill-rule="nonzero"/></g><path fill="#5167ad" d="M 357.980469 506.152344 L 368.148438 530.019531 L 234.507812 530.019531 L 239.734375 506.550781 L 237.855469 403.914062 C 261.476562 360.425781 242.039062 309.207031 242.039062 309.207031 C 247.507812 307.628906 258.671875 304.539062 261.480469 303.496094 C 261.480469 303.496094 259.546875 331.554688 303.488281 330.675781 C 303.488281 330.675781 337.503906 334.582031 341.808594 302.820312 C 345.050781 304.082031 357.902344 307.914062 362.136719 309.207031 C 362.136719 309.207031 346.636719 360.425781 367.910156 402.082031 L 357.980469 506.152344 " fill-opacity="1" fill-rule="nonzero"/><path fill="#183651" d="M 157.574219 604.980469 L 473.089844 604.980469 C 515.207031 609.898438 565.492188 553.230469 528.101562 543.964844 C 454.21875 525.660156 370.914062 530.019531 370.914062 530.019531 L 357.984375 506.152344 C 357.984375 506.152344 308.09375 521.707031 239.738281 506.550781 C 235.476562 523.285156 235.476562 523.285156 230.027344 534.203125 C 230.027344 534.203125 120.960938 520.496094 74.800781 560.464844 C 74.800781 560.464844 90.929688 604.980469 157.574219 604.980469 " fill-opacity="1" fill-rule="nonzero"/><path fill="#183651" d="M 365.914062 615.03125 C 365.914062 615.035156 365.144531 628.367188 360.65625 631.25 C 360.65625 631.25 330.839844 637.167969 276.027344 629.933594 C 268.792969 629.582031 203.46875 637.230469 201.925781 637.167969 C 156.492188 635.429688 138.644531 640.828125 96.742188 622.519531 C 81.175781 615.71875 50.320312 570.917969 82.585938 554.941406 C 119.890625 532.636719 205.84375 583.347656 205.875 583.363281 C 229.378906 597.230469 257.628906 602.585938 284.582031 601.910156 C 299.804688 601.53125 365.144531 586.820312 365.914062 615.03125 " fill-opacity="1" fill-rule="nonzero"/><path fill="#f8a18f" d="M 385.085938 594.597656 C 371 597.632812 353.269531 598.238281 332.5625 592.433594 C 324.394531 587.457031 313.878906 589.746094 306.746094 595.316406 C 306.746094 595.316406 299.136719 610.675781 269.761719 601.910156 C 269.761719 601.910156 263.054688 603.707031 261.929688 609.363281 C 261.929688 609.363281 255.789062 621.199219 267.191406 625.582031 C 267.191406 625.582031 297.007812 631.5 351.816406 624.265625 C 355.023438 624.109375 369.660156 625.527344 385.085938 627.148438 L 385.085938 594.597656 " fill-opacity="1" fill-rule="nonzero"/><path fill="#183651" d="M 545.261719 549.273438 C 507.945312 526.964844 421.972656 577.695312 421.972656 577.695312 C 421.972656 577.695312 404.175781 593.460938 373.472656 596.386719 L 373.472656 625.957031 C 395.125 628.109375 424.882812 631.539062 425.914062 631.5 C 471.355469 629.761719 489.199219 635.15625 531.101562 616.847656 C 546.667969 610.046875 577.527344 565.25 545.261719 549.273438 " fill-opacity="1" fill-rule="nonzero"/><path fill="#172345" d="M 493.914062 546.0625 C 476.441406 548.058594 464.777344 554.074219 454.132812 558.964844 C 440.144531 565.398438 427.546875 574.246094 414.519531 581.554688 C 401.488281 588.871094 388.074219 594.652344 372.410156 595.160156 C 371.613281 595.183594 370.816406 595.195312 370.015625 595.195312 C 359.019531 595.199219 348.027344 592.847656 336.453125 591.4375 C 331.628906 590.867188 326.097656 589.027344 320.234375 589.015625 C 317.132812 589.011719 313.921875 589.550781 310.746094 591.113281 C 307.570312 592.671875 304.457031 595.234375 301.480469 599.171875 C 301.042969 599.746094 301.15625 600.570312 301.738281 601.011719 C 302.316406 601.449219 303.144531 601.335938 303.578125 600.753906 C 306.359375 597.082031 309.148438 594.828125 311.910156 593.472656 C 314.664062 592.117188 317.429688 591.648438 320.234375 591.644531 C 325.539062 591.632812 330.941406 593.402344 336.136719 594.046875 C 347.558594 595.429688 358.644531 597.820312 370.015625 597.828125 C 370.839844 597.828125 371.667969 597.8125 372.496094 597.789062 C 388.777344 597.261719 402.632812 591.246094 415.804688 583.847656 C 428.984375 576.445312 441.527344 567.648438 455.230469 561.355469 C 465.96875 556.421875 477.207031 550.628906 494.210938 548.675781 C 494.933594 548.59375 495.449219 547.941406 495.367188 547.222656 C 495.285156 546.5 494.632812 545.984375 493.914062 546.0625 " fill-opacity="1" fill-rule="nonzero"/><path fill="#172345" d="M 259.351562 303.25 C 259.257812 304.046875 259.210938 304.835938 259.210938 305.621094 C 259.210938 311.144531 261.515625 316.210938 265.023438 320.25 C 268.53125 324.296875 273.246094 327.347656 278.246094 328.898438 C 284.410156 330.796875 294.195312 331.980469 304.441406 331.984375 C 307.679688 331.984375 310.964844 331.863281 314.179688 331.601562 C 314.90625 331.546875 315.445312 330.914062 315.386719 330.191406 C 315.332031 329.464844 314.695312 328.925781 313.972656 328.984375 C 310.828125 329.238281 307.617188 329.355469 304.441406 329.355469 C 294.414062 329.359375 284.75 328.160156 279.023438 326.382812 C 274.515625 324.992188 270.175781 322.1875 267.007812 318.527344 C 263.835938 314.867188 261.839844 310.394531 261.84375 305.621094 C 261.84375 304.941406 261.882812 304.257812 261.964844 303.566406 C 262.050781 302.84375 261.539062 302.191406 260.816406 302.101562 C 260.09375 302.015625 259.441406 302.53125 259.351562 303.25 " fill-opacity="1" fill-rule="nonzero"/><path fill="#172345" d="M 252.476562 509.496094 C 269.636719 513.285156 287.425781 515.101562 305.171875 515.101562 C 306.746094 515.101562 308.316406 515.085938 309.886719 515.058594 C 319.164062 514.894531 328.554688 514.332031 337.722656 512.871094 C 342.40625 512.125 347.085938 511.082031 351.507812 509.445312 C 352.191406 509.191406 352.539062 508.4375 352.289062 507.753906 C 352.035156 507.074219 351.277344 506.726562 350.597656 506.980469 C 346.402344 508.535156 341.882812 509.546875 337.308594 510.273438 C 328.308594 511.707031 319.042969 512.265625 309.84375 512.429688 C 308.285156 512.457031 306.730469 512.46875 305.171875 512.46875 C 287.605469 512.46875 270.003906 510.671875 253.046875 506.925781 C 252.335938 506.769531 251.632812 507.21875 251.476562 507.929688 C 251.320312 508.636719 251.769531 509.339844 252.476562 509.496094 " fill-opacity="1" fill-rule="nonzero"/><path fill="#5167ad" d="M 242.039062 309.207031 C 242.039062 309.207031 216.386719 311.949219 201.589844 352.714844 L 184.738281 401.015625 C 184.738281 401.015625 205.535156 425.269531 237.984375 427.460938 L 262.425781 361.59375 C 262.425781 361.59375 274.265625 326.851562 242.039062 309.207031 " fill-opacity="1" fill-rule="nonzero"/><path fill="#5167ad" d="M 362.136719 309.207031 C 362.136719 309.207031 387.789062 311.949219 402.585938 352.714844 L 419.441406 401.015625 C 419.441406 401.015625 398.640625 425.269531 366.191406 427.460938 L 341.75 361.59375 C 341.75 361.59375 329.910156 326.851562 362.136719 309.207031 " fill-opacity="1" fill-rule="nonzero"/><path fill="#f8a18f" d="M 284.722656 601.65625 C 274.378906 601.8125 263.855469 601.066406 253.492188 599.300781 L 253.167969 631.15625 C 264.261719 630.160156 273.429688 629.449219 275.882812 629.59375 C 330.617188 637.382812 360.492188 631.773438 360.492188 631.773438 C 365.011719 628.929688 365.917969 615.609375 365.917969 615.609375 C 365.433594 587.390625 299.953125 601.429688 284.722656 601.65625 " fill-opacity="1" fill-rule="nonzero"/><path fill="#183651" d="M 267.359375 601.488281 C 245.890625 599.921875 224.40625 594.296875 205.875 583.363281 C 205.84375 583.347656 119.890625 532.636719 82.585938 554.941406 C 50.320312 570.917969 81.175781 615.71875 96.742188 622.519531 C 138.644531 640.828125 156.492188 635.429688 201.925781 637.167969 C 203.195312 637.21875 247.613281 632.054688 267.359375 630.417969 L 267.359375 601.488281 " fill-opacity="1" fill-rule="nonzero"/><path fill="#172345" d="M 124.5625 553.285156 C 125.101562 553.265625 125.644531 553.257812 126.191406 553.257812 C 135.214844 553.253906 144.886719 555.964844 154.332031 559.703125 C 163.777344 563.445312 172.992188 568.199219 181.171875 572.207031 C 199.835938 581.328125 217.179688 594.683594 238.523438 599.433594 C 251.578125 602.324219 264.871094 603.164062 278.207031 603.164062 C 285.527344 603.164062 292.855469 602.910156 300.175781 602.605469 C 311.1875 602.140625 321.351562 600.363281 331.742188 599.957031 C 335.867188 599.789062 340.039062 599.347656 344.050781 599.347656 C 346.835938 599.347656 349.539062 599.558594 352.097656 600.203125 C 354.664062 600.847656 357.082031 601.90625 359.355469 603.632812 C 361.042969 604.90625 362.648438 607.269531 363.777344 610.109375 C 364.914062 612.941406 365.585938 616.242188 365.585938 619.34375 C 365.585938 621.824219 365.15625 624.175781 364.253906 626.082031 C 363.34375 627.988281 362.007812 629.449219 360.082031 630.339844 C 359.421875 630.648438 359.128906 631.429688 359.433594 632.085938 C 359.738281 632.75 360.519531 633.035156 361.179688 632.734375 C 363.722656 631.566406 365.523438 629.566406 366.628906 627.203125 C 367.746094 624.839844 368.214844 622.121094 368.214844 619.34375 C 368.214844 615.867188 367.480469 612.28125 366.222656 609.132812 C 364.957031 605.984375 363.1875 603.261719 360.949219 601.542969 C 358.371094 599.578125 355.589844 598.363281 352.738281 597.648438 C 349.890625 596.9375 346.96875 596.71875 344.050781 596.71875 C 339.847656 596.71875 335.640625 597.171875 331.636719 597.328125 C 321.015625 597.753906 310.859375 599.527344 300.066406 599.976562 C 292.761719 600.28125 285.464844 600.53125 278.207031 600.53125 C 264.980469 600.53125 251.882812 599.699219 239.09375 596.863281 C 218.488281 592.320312 201.300781 579.160156 182.332031 569.84375 C 174.183594 565.855469 164.90625 561.0625 155.300781 557.261719 C 145.6875 553.457031 135.742188 550.628906 126.191406 550.625 C 125.613281 550.625 125.039062 550.636719 124.464844 550.65625 C 123.738281 550.683594 123.171875 551.296875 123.199219 552.019531 C 123.226562 552.746094 123.835938 553.3125 124.5625 553.285156 " fill-opacity="1" fill-rule="nonzero"/><path fill="#172345" d="M 363.421875 606.882812 L 363.296875 606.910156 C 362.667969 607.035156 359.804688 607.558594 356.53125 607.554688 C 354.824219 607.558594 353.007812 607.414062 351.355469 607.019531 C 350.652344 606.855469 349.941406 607.292969 349.773438 608 C 349.605469 608.707031 350.042969 609.414062 350.75 609.582031 C 352.675781 610.035156 354.679688 610.1875 356.53125 610.1875 C 360.582031 610.183594 363.917969 609.46875 363.972656 609.457031 C 364.683594 609.304688 365.132812 608.605469 364.984375 607.894531 C 364.832031 607.1875 364.132812 606.734375 363.421875 606.882812 " fill-opacity="1" fill-rule="nonzero"/><path fill="#172345" d="M 365.253906 613.640625 L 365.234375 613.648438 C 364.992188 613.695312 362.472656 614.1875 358.59375 614.1875 C 357.355469 614.1875 355.980469 614.136719 354.496094 614.007812 C 353.773438 613.945312 353.136719 614.480469 353.074219 615.207031 C 353.011719 615.925781 353.542969 616.566406 354.269531 616.628906 C 355.832031 616.761719 357.285156 616.816406 358.59375 616.816406 C 362.96875 616.816406 365.734375 616.230469 365.800781 616.214844 C 366.515625 616.0625 366.96875 615.363281 366.8125 614.652344 C 366.660156 613.945312 365.964844 613.492188 365.253906 613.640625 " fill-opacity="1" fill-rule="nonzero"/><path fill="#172345" d="M 366.488281 620.796875 L 366.285156 620.832031 C 365.351562 620.996094 361.25 621.640625 357.738281 621.640625 C 357.007812 621.640625 356.304688 621.609375 355.671875 621.546875 C 354.945312 621.480469 354.304688 622.007812 354.234375 622.730469 C 354.164062 623.453125 354.691406 624.097656 355.414062 624.167969 C 356.15625 624.238281 356.941406 624.269531 357.738281 624.269531 C 362.089844 624.265625 366.910156 623.394531 366.953125 623.390625 C 367.667969 623.257812 368.140625 622.578125 368.015625 621.863281 C 367.886719 621.148438 367.203125 620.671875 366.488281 620.796875 " fill-opacity="1" fill-rule="nonzero"/><path fill="#1f4272" d="M 317.015625 163.945312 C 325.148438 170.90625 330.5 191.609375 328.027344 201.675781 C 326.058594 209.664062 320.464844 216.429688 319.671875 224.738281 C 318.355469 238.460938 332.488281 247.070312 332.902344 260.484375 C 333.375 275.652344 322.496094 287.378906 316.753906 300.527344 C 310.464844 314.917969 316.589844 329.664062 319.585938 344.011719 C 321.9375 355.257812 315.996094 375.972656 325.609375 384.0625 C 331.214844 388.785156 342.261719 390.117188 349.003906 387.464844 C 361.105469 382.707031 359.191406 367.765625 366.699219 359.316406 C 374.015625 351.082031 394.328125 356.996094 396.972656 344.164062 C 398.894531 334.828125 388.367188 325.265625 384.835938 317.242188 C 376.589844 298.527344 392.382812 278.871094 383.128906 261.628906 C 378.386719 252.78125 371.652344 246.5625 370.8125 235.820312 C 370.039062 225.929688 377.195312 216.882812 370.632812 207.707031 C 363.558594 197.8125 358.703125 193.183594 359.621094 180.582031 C 361.738281 151.394531 345.125 140.210938 335.542969 136.035156 C 285.777344 114.34375 287.304688 164.054688 287.304688 164.054688 C 287.304688 164.054688 299.578125 157.414062 317.015625 163.945312 " fill-opacity="1" fill-rule="nonzero"/><path fill="#1f4272" d="M 274.359375 175.382812 C 278.171875 169.78125 283.269531 165.199219 289.734375 163.128906 C 302.144531 159.152344 318.535156 161.1875 327.539062 171.765625 C 333.515625 178.789062 337.257812 187.984375 338.140625 197.089844 C 338.429688 199.96875 338.597656 213.179688 344.484375 210.570312 C 349.4375 208.371094 348.804688 190.710938 348.132812 186.789062 C 346.761719 178.734375 344.8125 171.109375 340.269531 163.992188 C 331.691406 150.574219 316.867188 142.578125 301.21875 141.296875 C 283.96875 139.878906 266.246094 152.695312 259.5625 168.386719 C 257.574219 173.0625 251.183594 209.144531 259.996094 210.570312 C 264.96875 211.371094 266.285156 195.386719 266.953125 192.582031 C 268.335938 186.773438 270.78125 180.632812 274.359375 175.382812 " fill-opacity="1" fill-rule="nonzero"/><path fill="#172345" d="M 429.707031 445.214844 C 429.40625 445.191406 429.105469 445.175781 428.804688 445.175781 C 425.664062 445.183594 422.707031 446.539062 420.269531 448.234375 C 417.835938 449.949219 415.917969 452.003906 414.871094 453.738281 C 414.496094 454.363281 414.703125 455.171875 415.324219 455.542969 C 415.945312 455.917969 416.753906 455.714844 417.128906 455.089844 C 417.894531 453.792969 419.640625 451.882812 421.78125 450.394531 C 423.925781 448.886719 426.460938 447.796875 428.804688 447.804688 C 429.027344 447.804688 429.253906 447.816406 429.476562 447.832031 C 430.199219 447.898438 430.835938 447.363281 430.902344 446.640625 C 430.964844 445.917969 430.429688 445.28125 429.707031 445.214844 " fill-opacity="1" fill-rule="nonzero"/><path fill="#172345" d="M 177.035156 448.203125 C 177.792969 447.933594 178.570312 447.8125 179.371094 447.8125 C 181.125 447.808594 183 448.417969 184.730469 449.398438 C 186.460938 450.378906 188.035156 451.722656 189.1875 453.078125 C 189.65625 453.628906 190.488281 453.695312 191.039062 453.222656 C 191.59375 452.753906 191.660156 451.921875 191.1875 451.371094 C 189.832031 449.78125 188.054688 448.261719 186.03125 447.113281 C 184.007812 445.964844 181.726562 445.183594 179.371094 445.179688 C 178.300781 445.179688 177.214844 445.347656 176.15625 445.722656 C 175.472656 445.964844 175.113281 446.714844 175.355469 447.402344 C 175.597656 448.085938 176.351562 448.445312 177.035156 448.203125 " fill-opacity="1" fill-rule="nonzero"/></svg>