<svg xmlns="http://www.w3.org/2000/svg" xmlns:xlink="http://www.w3.org/1999/xlink" width="793" zoomAndPan="magnify" viewBox="0 0 595.5 842.249979" height="1122" preserveAspectRatio="xMidYMid meet" version="1.0"><defs><clipPath id="faa2807fb5"><path d="M 523.375 555 L 594.984375 555 L 594.984375 619.664062 L 523.375 619.664062 Z M 523.375 555 " clip-rule="nonzero"/></clipPath></defs><path fill="#192247" d="M 264.1875 275.59375 C 264.1875 275.59375 241.664062 284.367188 232.800781 267.464844 C 229.476562 261.644531 239.171875 250.558594 234.464844 245.570312 C 229.753906 240.585938 214.519531 231.949219 219.507812 214.238281 C 224.492188 196.527344 230.308594 197.082031 226.152344 186.828125 C 222 176.578125 226.632812 152.746094 241.351562 148.871094 C 256.070312 144.988281 255.78125 131.136719 277.117188 132.242188 C 298.449219 133.351562 301.496094 142.21875 312.578125 140.003906 C 323.65625 137.785156 346.371094 150.808594 344.429688 172.421875 C 342.492188 194.03125 346.648438 190.042969 356.34375 195.972656 C 366.035156 201.902344 367.347656 223.0625 358.761719 232.824219 C 350.175781 242.59375 350.210938 248.675781 352.464844 255.269531 C 356.066406 265.800781 342.253906 284.667969 317.859375 267.335938 C 293.464844 250.003906 264.1875 275.59375 264.1875 275.59375 " fill-opacity="1" fill-rule="nonzero"/><path fill="#8c4949" d="M 362.679688 288.84375 C 362.679688 288.84375 325.300781 282.378906 320.703125 277.78125 C 316.109375 273.183594 317.257812 242.089844 317.257812 242.089844 L 267.335938 253.648438 C 267.335938 253.648438 268.484375 273.183594 263.890625 277.78125 C 259.296875 282.378906 221.917969 288.84375 221.917969 288.84375 C 221.917969 288.84375 223.472656 314.808594 219.6875 334.011719 C 215.667969 354.40625 215.375 381.417969 234.550781 393.144531 L 236.277344 420.425781 L 350.011719 420.425781 C 350.011719 420.425781 342.179688 397.136719 343.328125 394.261719 C 344.222656 392.023438 371.714844 378.457031 359.824219 336.882812 C 355.960938 323.386719 361.257812 311.894531 363.222656 291.140625 L 362.679688 288.84375 " fill-opacity="1" fill-rule="nonzero"/><path fill="#723333" d="M 317.132812 250.984375 C 317.121094 245.867188 317.257812 242.089844 317.257812 242.089844 L 267.335938 253.648438 C 267.335938 253.648438 267.585938 257.855469 267.390625 262.824219 C 272.089844 267.546875 277.632812 270.464844 284.011719 270.816406 C 298.519531 271.613281 309.578125 262.757812 317.132812 250.984375 " fill-opacity="1" fill-rule="nonzero"/><path fill="#8c4949" d="M 236.277344 420.425781 C 236.277344 420.425781 237.855469 436.355469 236.320312 443.25 C 234.789062 450.144531 231.34375 452.824219 229.429688 464.699219 C 229.429688 464.699219 247.542969 485.96875 294.0625 485.96875 C 340.582031 485.96875 356.765625 464.699219 356.765625 464.699219 C 354.847656 452.824219 351.40625 450.144531 349.875 443.25 C 348.34375 436.355469 349.917969 420.425781 349.917969 420.425781 L 236.277344 420.425781 " fill-opacity="1" fill-rule="nonzero"/><path fill="#e2e2e2" d="M 362.25 347.015625 C 360.742188 337.980469 357.933594 335.289062 362.453125 312.328125 C 366.523438 291.636719 362.679688 288.84375 362.679688 288.84375 C 362.679688 288.84375 331.105469 279.429688 325.953125 280.394531 C 326.925781 299.753906 316.425781 313.992188 307.878906 320.34375 C 300.964844 325.484375 283.675781 327.65625 271.378906 315.046875 C 258.085938 301.421875 258.375 289.675781 257.65625 280.734375 C 239.238281 280.976562 211.542969 290.40625 211.542969 290.40625 C 211.542969 290.40625 211.542969 304.882812 211.921875 312.699219 C 212.503906 324.613281 212.167969 336.144531 216.476562 356.378906 C 215.367188 372.523438 217.648438 388.988281 230.53125 396.867188 C 230.53125 396.867188 233.625 409.078125 235.242188 426.210938 C 235.242188 426.210938 236.628906 438.601562 233.65625 445.566406 C 229.84375 454.5 228.089844 465.4375 228.089844 465.4375 C 228.089844 465.4375 251.210938 477.074219 290.359375 477.074219 C 329.5 477.074219 358.101562 465.4375 358.101562 465.4375 C 358.101562 465.4375 358.496094 459.484375 356.765625 453.199219 C 353.847656 442.621094 350.5 434.015625 351.34375 421.632812 C 351.34375 421.632812 351.15625 396.867188 352.308594 393.996094 C 353.125 391.945312 368.652344 380.667969 362.25 347.015625 " fill-opacity="1" fill-rule="nonzero"/><path fill="#d8d7d6" d="M 230.53125 396.867188 C 241.261719 398.855469 252.21875 398.695312 263.050781 399.792969 C 252.34375 401.640625 240.488281 401.679688 230.53125 396.867188 " fill-opacity="1" fill-rule="nonzero"/><path fill="#d8d7d6" d="M 352.308594 393.992188 C 343.238281 400.542969 330.847656 401.316406 320.195312 398.929688 C 331.011719 398.332031 342.054688 397.816406 352.308594 393.992188 " fill-opacity="1" fill-rule="nonzero"/><path fill="#d8d7d6" d="M 329.878906 280.597656 C 328.105469 280.339844 326.726562 280.25 325.953125 280.394531 C 326.925781 299.753906 316.425781 313.992188 307.878906 320.347656 C 300.964844 325.484375 283.675781 327.65625 271.378906 315.046875 C 258.085938 301.421875 258.378906 289.679688 257.65625 280.734375 C 256.21875 280.753906 254.722656 280.828125 253.191406 280.949219 C 254.308594 290.703125 260.734375 329.550781 292.296875 329.550781 C 326.621094 329.550781 331.550781 293.769531 329.878906 280.597656 " fill-opacity="1" fill-rule="nonzero"/><path fill="#8c4949" d="M 286.59375 146.433594 C 286.59375 146.433594 249.839844 147.867188 247.828125 182.914062 C 245.816406 217.960938 258.007812 263.921875 285.589844 263.921875 C 311.761719 263.921875 325.078125 235.484375 328.523438 213.652344 C 331.96875 191.820312 329.09375 144.710938 286.59375 146.433594 " fill-opacity="1" fill-rule="nonzero"/><path fill="#212851" d="M 301.71875 213 C 300.519531 213 299.46875 212.832031 298.601562 212.613281 C 296.085938 211.972656 294.570312 210.777344 294.503906 210.726562 C 294.21875 210.496094 294.167969 210.074219 294.402344 209.785156 C 294.632812 209.496094 295.054688 209.449219 295.339844 209.679688 C 295.566406 209.855469 300.851562 213.933594 308.09375 209.90625 C 308.421875 209.722656 308.824219 209.839844 309.007812 210.164062 C 309.1875 210.488281 309.070312 210.894531 308.75 211.078125 C 306.121094 212.535156 303.71875 213 301.71875 213 " fill-opacity="1" fill-rule="nonzero"/><path fill="#212851" d="M 269.84375 213 C 268.644531 213 267.59375 212.832031 266.726562 212.613281 C 264.210938 211.972656 262.695312 210.777344 262.632812 210.726562 C 262.34375 210.496094 262.296875 210.074219 262.527344 209.785156 C 262.757812 209.496094 263.175781 209.449219 263.464844 209.679688 C 263.691406 209.855469 268.976562 213.933594 276.21875 209.90625 C 276.546875 209.722656 276.953125 209.839844 277.132812 210.164062 C 277.3125 210.488281 277.195312 210.894531 276.871094 211.078125 C 274.246094 212.535156 271.84375 213 269.84375 213 " fill-opacity="1" fill-rule="nonzero"/><path fill="#723333" d="M 286.273438 241.894531 C 284.261719 241.894531 282.476562 241.679688 281.011719 241.402344 C 276.992188 240.640625 274.484375 239.289062 274.378906 239.230469 C 274.054688 239.054688 273.933594 238.644531 274.109375 238.320312 C 274.289062 237.996094 274.695312 237.875 275.019531 238.054688 C 275.117188 238.105469 284.800781 243.242188 296.234375 238.613281 C 296.574219 238.472656 296.964844 238.640625 297.101562 238.984375 C 297.242188 239.324219 297.078125 239.714844 296.734375 239.855469 C 292.9375 241.394531 289.339844 241.894531 286.273438 241.894531 " fill-opacity="1" fill-rule="nonzero"/><path fill="#824343" d="M 291.460938 223.132812 C 291.460938 223.132812 292.480469 219.6875 296.945312 218.792969 C 301.414062 217.902344 304.605469 218.15625 310.859375 218.027344 C 317.113281 217.902344 318.261719 222.242188 316.472656 224.285156 C 314.6875 226.324219 311.371094 226.839844 305.757812 226.839844 C 300.136719 226.839844 290.566406 227.476562 291.460938 223.132812 " fill-opacity="1" fill-rule="nonzero"/><path fill="#824343" d="M 278.761719 223.132812 C 278.761719 223.132812 277.742188 219.6875 273.273438 218.792969 C 268.808594 217.902344 265.617188 218.15625 259.363281 218.027344 C 253.109375 217.902344 251.960938 222.242188 253.746094 224.285156 C 255.53125 226.324219 258.851562 226.839844 264.46875 226.839844 C 270.082031 226.839844 279.65625 227.476562 278.761719 223.132812 " fill-opacity="1" fill-rule="nonzero"/><path fill="#161d3d" d="M 293.117188 198.175781 C 292.792969 198.175781 292.472656 198.007812 292.292969 197.703125 C 292.027344 197.246094 292.175781 196.660156 292.632812 196.394531 C 292.738281 196.328125 295.304688 194.835938 299.054688 194.078125 C 304.0625 193.066406 308.808594 193.875 312.78125 196.410156 C 313.226562 196.695312 313.355469 197.285156 313.070312 197.734375 C 312.785156 198.179688 312.195312 198.308594 311.746094 198.023438 C 303.152344 192.53125 293.699219 197.988281 293.605469 198.042969 C 293.453125 198.132812 293.285156 198.175781 293.117188 198.175781 " fill-opacity="1" fill-rule="nonzero"/><path fill="#161d3d" d="M 258.019531 198.175781 C 257.691406 198.175781 257.371094 198.007812 257.195312 197.703125 C 256.925781 197.246094 257.078125 196.660156 257.53125 196.394531 C 257.640625 196.328125 260.203125 194.835938 263.957031 194.078125 C 268.964844 193.066406 273.710938 193.875 277.679688 196.410156 C 278.125 196.695312 278.253906 197.285156 277.972656 197.734375 C 277.6875 198.179688 277.09375 198.308594 276.648438 198.023438 C 268.054688 192.53125 258.601562 197.988281 258.503906 198.042969 C 258.351562 198.132812 258.183594 198.175781 258.019531 198.175781 " fill-opacity="1" fill-rule="nonzero"/><path fill="#723333" d="M 285.59375 230.789062 C 281.957031 230.777344 279.929688 230.089844 279.210938 228.628906 C 278.308594 226.8125 279.890625 224.367188 281.160156 222.6875 C 284.097656 218.804688 283.609375 211.546875 283.601562 211.472656 C 283.574219 211.132812 283.832031 210.835938 284.175781 210.8125 C 284.511719 210.792969 284.8125 211.042969 284.835938 211.382812 C 284.859375 211.695312 285.367188 219.175781 282.148438 223.429688 C 280.492188 225.625 279.875 227.1875 280.316406 228.082031 C 280.644531 228.746094 281.828125 229.539062 285.59375 229.554688 C 285.9375 229.554688 286.210938 229.832031 286.210938 230.171875 C 286.210938 230.515625 285.929688 230.789062 285.59375 230.789062 " fill-opacity="1" fill-rule="nonzero"/><path fill="#192247" d="M 274.03125 165.417969 C 274.03125 165.417969 263.445312 167.1875 255.355469 181.871094 C 248.667969 194.011719 249.609375 205.976562 250.472656 211.269531 C 250.472656 211.269531 247.8125 212.589844 246.59375 207.652344 C 242.164062 189.671875 238.738281 143.484375 288.59375 143.484375 C 309.574219 143.484375 336.414062 162.550781 331.074219 208.433594 C 330.742188 211.296875 327.953125 210.863281 327.191406 210.238281 C 327.191406 210.238281 325.292969 195.070312 314.960938 182.269531 C 304.320312 169.082031 292.804688 160.441406 274.03125 165.417969 " fill-opacity="1" fill-rule="nonzero"/><path fill="#824343" d="M 250.320312 210.257812 C 250.320312 210.257812 247.863281 206.5625 245.847656 207.972656 C 243.832031 209.386719 246.195312 232.359375 253.152344 229.558594 L 250.320312 210.257812 " fill-opacity="1" fill-rule="nonzero"/><path fill="#824343" d="M 327.191406 210.238281 C 327.191406 210.238281 329.609375 206.5625 331.625 207.972656 C 333.640625 209.386719 331.28125 232.3125 324.324219 229.515625 L 327.191406 210.238281 " fill-opacity="1" fill-rule="nonzero"/><path fill="#192247" d="M 288.007812 164.214844 C 288.007812 164.214844 287.386719 171.988281 295.183594 171.160156 C 302.984375 170.324219 303.933594 173.722656 304.320312 178.484375 C 304.707031 183.246094 309.578125 193.300781 315.875 193.652344 C 322.175781 194.007812 321.917969 205.035156 321.1875 210.8125 C 320.453125 216.585938 315.144531 220.433594 320.089844 224.28125 C 320.089844 224.28125 318.816406 220.316406 321.558594 218.726562 C 324.300781 217.136719 327.765625 212.089844 328.324219 207.652344 C 328.878906 203.210938 324.601562 159.289062 288.007812 164.214844 " fill-opacity="1" fill-rule="nonzero"/><path fill="#192247" d="M 288.007812 164.214844 C 288.007812 164.214844 284.5 166.394531 278.121094 167.308594 C 271.742188 168.226562 266.367188 168.957031 267.59375 172.804688 C 268.8125 176.652344 267.898438 185.628906 260.757812 186.546875 C 253.613281 187.460938 251.320312 191.125 254.347656 194.054688 C 257.375 196.988281 256.726562 202.515625 254.347656 205.15625 C 251.964844 207.792969 252.882812 215.671875 254.714844 216.035156 C 254.714844 216.035156 251.96875 214.375 250.320312 210.261719 C 248.667969 206.144531 246.957031 205.984375 245.261719 200.9375 C 240.246094 185.996094 258.3125 148.296875 288.007812 164.214844 " fill-opacity="1" fill-rule="nonzero"/><path fill="#edba6a" d="M 229.429688 464.699219 C 229.429688 464.699219 227.132812 465.082031 224.835938 470.0625 C 222.535156 475.039062 217.175781 489.59375 215.261719 495.722656 C 213.347656 501.851562 206.070312 507.214844 204.921875 517.558594 C 203.941406 526.382812 237.277344 560.605469 281.351562 570.441406 L 305.230469 570.355469 C 349.113281 560.40625 387.792969 526.359375 386.816406 517.558594 C 385.667969 507.214844 372.847656 501.851562 370.929688 495.722656 C 369.019531 489.59375 363.65625 475.039062 361.359375 470.0625 C 359.0625 465.082031 356.765625 464.699219 356.765625 464.699219 C 356.765625 464.699219 304.644531 487.378906 229.429688 464.699219 " fill-opacity="1" fill-rule="nonzero"/><path fill="#eda26a" d="M 250.203125 517.636719 C 242.269531 514.957031 226.941406 507.582031 221.484375 503.273438 C 218.496094 500.914062 215.683594 499.675781 213.75 499.035156 C 210.894531 503.976562 205.863281 509.101562 204.921875 517.558594 C 204.589844 520.574219 208.261719 526.554688 215.003906 533.515625 C 243.960938 545.40625 296.867188 574.585938 295.859375 565.320312 C 294.425781 552.105469 270.589844 524.53125 250.203125 517.636719 " fill-opacity="1" fill-rule="nonzero"/><path fill="#eda26a" d="M 386.816406 517.558594 C 385.667969 507.214844 372.847656 501.851562 370.929688 495.726562 C 370.667969 494.890625 370.34375 493.898438 369.972656 492.796875 C 366.496094 500.078125 364.308594 506.429688 352.71875 513.613281 C 311.941406 538.894531 295.859375 567.90625 295.859375 567.90625 L 382.539062 525.941406 C 385.488281 522.34375 387.019531 519.398438 386.816406 517.558594 " fill-opacity="1" fill-rule="nonzero"/><path fill="#eda26a" d="M 287.535156 548.660156 C 287.535156 548.660156 297.007812 561.011719 312.515625 548.660156 C 312.515625 548.660156 313.089844 569.628906 292.988281 569.628906 C 272.886719 569.628906 287.535156 548.660156 287.535156 548.660156 " fill-opacity="1" fill-rule="nonzero"/><path fill="#eda26a" d="M 362.011719 471.539062 C 361.773438 470.984375 361.554688 470.488281 361.355469 470.0625 C 359.058594 465.082031 356.761719 464.699219 356.761719 464.699219 C 356.761719 464.699219 304.640625 487.378906 229.429688 464.699219 C 229.429688 464.699219 227.128906 465.082031 224.832031 470.0625 C 224.507812 470.765625 224.121094 471.664062 223.691406 472.703125 C 237.34375 477.582031 303.109375 498.46875 362.011719 471.539062 " fill-opacity="1" fill-rule="nonzero"/><path fill="#edba6a" d="M 379.351562 505.789062 C 379.351562 505.789062 448.234375 520.40625 495.910156 544.539062 C 543.585938 568.671875 549.332031 608.894531 544.160156 619.8125 C 538.992188 630.730469 501.082031 643.371094 462.597656 631.304688 C 424.109375 619.238281 331.054688 574.421875 316.121094 566.375 C 301.1875 558.332031 356.375 513.261719 379.351562 505.789062 " fill-opacity="1" fill-rule="nonzero"/><path fill="#eda26a" d="M 390.582031 556.105469 C 390.582031 556.105469 390.582031 548.0625 379.667969 545.191406 C 368.757812 542.316406 354.394531 541.167969 349.800781 540.59375 C 345.519531 540.058594 327.289062 547.996094 318.3125 551.875 C 313.355469 558.605469 311.792969 564.046875 316.121094 566.375 C 319.011719 567.933594 324.832031 570.867188 332.613281 574.675781 C 374.5625 586.441406 448.933594 601.996094 505.464844 584.835938 C 505.464844 584.835938 469.277344 554.957031 390.582031 556.105469 " fill-opacity="1" fill-rule="nonzero"/><path fill="#edba6a" d="M 209.28125 509.488281 C 209.28125 509.488281 94.972656 546.265625 69.699219 567.523438 C 44.421875 588.785156 49.019531 613.492188 57.636719 620.386719 C 66.25 627.285156 225.9375 612.917969 273.613281 583.039062 C 321.289062 553.160156 228.808594 504.894531 209.28125 509.488281 " fill-opacity="1" fill-rule="nonzero"/><path fill="#eda26a" d="M 270.726562 536.671875 C 261.828125 533.089844 247.535156 535.195312 238.367188 536.570312 C 226.878906 538.292969 215.964844 538.871094 203.324219 535.421875 C 190.6875 531.972656 173.457031 535.996094 163.117188 542.890625 C 152.777344 549.785156 151.054688 558.980469 151.054688 558.980469 C 120.035156 560.703125 88.664062 575.371094 88.664062 575.371094 C 124.46875 593.664062 240.738281 578.933594 284.597656 572.511719 C 291.378906 560.828125 283.625 547.835938 270.726562 536.671875 " fill-opacity="1" fill-rule="nonzero"/><path fill="#edba6a" d="M 57.636719 620.386719 C 57.636719 620.386719 89.230469 646.820312 181.132812 632.453125 C 273.039062 618.089844 333.351562 588.210938 333.351562 588.210938 C 333.351562 588.210938 310.507812 568.984375 300.167969 564.390625 C 300.167969 564.390625 222.117188 566.453125 184.582031 567.523438 C 144.371094 568.671875 53.613281 553.734375 57.636719 620.386719 " fill-opacity="1" fill-rule="nonzero"/><path fill="#8c4949" d="M 300.167969 564.390625 C 300.167969 564.390625 310.414062 558.769531 315.964844 556.917969 C 321.511719 555.070312 333.890625 553.039062 339.4375 549.339844 C 344.992188 545.636719 355.472656 545.636719 361.949219 547.179688 C 368.421875 548.722656 384.148438 547.796875 382.296875 559.207031 C 382.296875 559.207031 342.855469 584.175781 333.351562 588.210938 C 333.351562 588.210938 306.277344 573.613281 300.167969 564.390625 " fill-opacity="1" fill-rule="nonzero"/><path fill="#eda26a" d="M 329.929688 585.386719 C 323.164062 579.871094 308.039062 567.890625 300.167969 564.390625 C 300.167969 564.390625 222.117188 566.453125 184.578125 567.523438 C 183.507812 567.554688 182.394531 567.574219 181.25 567.582031 C 189.761719 570.8125 232.570312 587.082031 242.382812 591.734375 C 249.453125 595.082031 265.429688 604.210938 275.816406 610.234375 C 303.417969 601.476562 322.265625 593.324219 329.746094 589.90625 L 329.929688 585.386719 " fill-opacity="1" fill-rule="nonzero"/><path fill="#eda26a" d="M 69.699219 567.523438 C 44.425781 588.785156 49.019531 613.492188 57.636719 620.386719 C 57.636719 620.386719 58.277344 620.925781 59.644531 621.804688 C 61.746094 617.070312 65.554688 607.378906 66.089844 598.269531 C 66.824219 585.757812 91.152344 563.804688 101.113281 549.96875 C 87.3125 556.234375 75.859375 562.339844 69.699219 567.523438 " fill-opacity="1" fill-rule="nonzero"/><path fill="#8c4949" d="M 289.355469 560.839844 C 289.355469 560.839844 279.132812 558.074219 277.121094 554.914062 C 275.109375 551.753906 270.804688 539.398438 261.039062 537.675781 C 251.277344 535.953125 237.207031 544.285156 228.015625 543.421875 C 218.828125 542.5625 194.417969 537.675781 188.101562 537.390625 C 181.78125 537.101562 167.710938 542.5625 161.679688 552.039062 C 155.652344 561.519531 169.722656 560.65625 182.070312 561.519531 C 194.417969 562.378906 218.828125 574.445312 233.183594 579.042969 C 247.542969 583.636719 275.953125 594.164062 275.953125 594.164062 C 275.953125 594.164062 284.644531 578.257812 289.355469 560.839844 " fill-opacity="1" fill-rule="nonzero"/><path fill="#edba6a" d="M 275.953125 594.164062 C 275.953125 594.164062 279.78125 570.796875 289.355469 560.839844 C 289.355469 560.839844 315.390625 568.117188 350.238281 565.4375 C 385.078125 562.753906 484.25 564.671875 511.433594 587.269531 C 538.621094 609.867188 544.160156 619.8125 544.160156 619.8125 C 544.160156 619.8125 522.15625 650.851562 452.472656 642.039062 C 382.777344 633.230469 275.953125 594.164062 275.953125 594.164062 " fill-opacity="1" fill-rule="nonzero"/><path fill="#eda26a" d="M 495.910156 544.539062 C 485.511719 539.277344 474.101562 534.464844 462.617188 530.160156 C 473.808594 540.347656 502.117188 565.871094 512.777344 573.28125 C 525.59375 582.179688 525.492188 611.476562 540.058594 624.5 C 542.027344 622.953125 543.425781 621.367188 544.160156 619.8125 C 549.332031 608.894531 543.585938 568.671875 495.910156 544.539062 " fill-opacity="1" fill-rule="nonzero"/><path fill="#8c4949" d="M 362.355469 288.84375 C 362.355469 288.84375 389.976562 290.996094 402.617188 316.851562 C 415.253906 342.707031 424.394531 388.824219 437.605469 412.957031 C 450.816406 437.089844 465.179688 453.179688 455.410156 465.246094 C 445.648438 477.3125 423.820312 476.164062 411.757812 459.5 C 399.695312 442.835938 374.421875 387.675781 366.378906 365.839844 C 358.339844 344.003906 346.277344 303.210938 362.355469 288.84375 " fill-opacity="1" fill-rule="nonzero"/><path fill="#e2e2e2" d="M 355.355469 286.734375 C 355.355469 286.734375 382.109375 286.5625 397.976562 306.59375 C 413.851562 326.617188 428.375 376.566406 428.375 376.566406 C 428.375 376.566406 414.015625 388.21875 375.394531 393.996094 C 375.394531 393.996094 360.207031 357.273438 354.433594 334.558594 C 348.65625 311.84375 350.335938 294.964844 355.355469 286.734375 " fill-opacity="1" fill-rule="nonzero"/><path fill="#d8d7d6" d="M 355.355469 286.734375 C 352.140625 301.03125 352.679688 316.097656 355.042969 330.488281 C 358.054688 341.46875 364.941406 351.996094 363.777344 363.832031 C 362.726562 351.980469 355.253906 342.453125 351.945312 331.277344 C 349.152344 316.65625 349.066406 300.488281 355.355469 286.734375 " fill-opacity="1" fill-rule="nonzero"/><path fill="#8c4949" d="M 454.011719 439.433594 C 454.011719 439.433594 476.957031 457.773438 497.0625 489.953125 C 517.167969 522.128906 541.132812 553.734375 545.726562 561.203125 C 550.320312 568.671875 539.40625 581.316406 524.472656 573.269531 C 509.539062 565.226562 428.460938 492.292969 412.949219 460.691406 C 410.074219 449.773438 430.464844 423.921875 454.011719 439.433594 " fill-opacity="1" fill-rule="nonzero"/><g clip-path="url(#faa2807fb5)"><path fill="#8c4949" d="M 524.472656 573.269531 C 524.472656 573.269531 531.535156 584.359375 534.984375 592.246094 C 539.007812 601.4375 546.855469 610.632812 554.128906 613.3125 C 559.628906 615.339844 583.996094 621.355469 590.507812 619.058594 C 593.570312 617.527344 591.082031 613.503906 591.082031 613.503906 C 591.082031 613.503906 595.484375 612.550781 595.484375 610.25 C 595.484375 607.953125 586.675781 607.570312 586.675781 607.570312 C 586.675781 607.570312 592.800781 605.652344 593.1875 602.972656 C 593.570312 600.292969 583.613281 601.058594 580.171875 600.675781 C 576.722656 600.292969 573.277344 598.375 570.976562 595.3125 C 570.976562 595.3125 579.402344 596.460938 583.996094 596.460938 C 588.59375 596.460938 590.125 592.628906 590.507812 589.949219 C 590.886719 587.269531 588.972656 581.90625 584.761719 578.84375 C 580.554688 575.777344 578.621094 579.878906 580.554688 582.289062 C 582.847656 585.160156 582.464844 588.609375 582.464844 588.609375 C 582.464844 588.609375 573.660156 587.652344 571.359375 585.734375 C 569.0625 583.820312 562.171875 578.84375 559.105469 576.542969 C 556.046875 574.242188 561.40625 573.480469 563.703125 573.480469 C 566 573.480469 569.0625 573.09375 572.890625 575.394531 C 576.722656 577.691406 580.554688 576.925781 580.933594 575.011719 C 581.316406 573.09375 577.871094 568.882812 573.660156 565.054688 C 569.445312 561.222656 565.234375 560.074219 557.960938 560.457031 C 550.6875 560.839844 547.238281 560.839844 542.261719 556.242188 C 537.28125 551.648438 518.9375 560.421875 524.472656 573.269531 " fill-opacity="1" fill-rule="nonzero"/></g><path fill="#723333" d="M 547.332031 578.988281 C 543.496094 578.988281 540.371094 577.832031 540.175781 577.757812 C 539.933594 577.664062 539.804688 577.386719 539.898438 577.140625 C 539.992188 576.894531 540.269531 576.765625 540.515625 576.863281 C 540.585938 576.886719 547.492188 579.4375 553.171875 576.871094 C 556.664062 575.292969 557.425781 574.671875 557.457031 574.648438 C 557.660156 574.480469 557.960938 574.503906 558.128906 574.699219 C 558.300781 574.902344 558.28125 575.195312 558.082031 575.371094 C 558.003906 575.441406 557.203125 576.101562 553.5625 577.746094 C 551.5 578.679688 549.320312 578.988281 547.332031 578.988281 " fill-opacity="1" fill-rule="nonzero"/><path fill="#723333" d="M 586.679688 608.046875 C 586.644531 608.046875 586.613281 608.042969 586.585938 608.039062 C 586.488281 608.019531 576.96875 606.113281 572.808594 605.359375 C 568.5 604.574219 565.226562 601.339844 565.085938 601.203125 C 564.898438 601.015625 564.898438 600.714844 565.085938 600.527344 C 565.273438 600.339844 565.574219 600.339844 565.765625 600.527344 C 565.792969 600.558594 568.96875 603.6875 572.976562 604.414062 C 577.144531 605.171875 586.675781 607.078125 586.773438 607.097656 C 587.03125 607.148438 587.199219 607.402344 587.148438 607.660156 C 587.101562 607.890625 586.902344 608.046875 586.679688 608.046875 " fill-opacity="1" fill-rule="nonzero"/><path fill="#723333" d="M 591.082031 613.984375 C 591.058594 613.984375 591.042969 613.984375 591.019531 613.980469 C 590.945312 613.96875 583.3125 613.015625 579.144531 612.445312 C 577.121094 612.171875 566.734375 610.605469 560.949219 606.820312 C 560.730469 606.675781 560.667969 606.378906 560.8125 606.15625 C 560.957031 605.933594 561.253906 605.871094 561.476562 606.019531 C 567.089844 609.691406 577.289062 611.226562 579.273438 611.5 C 583.433594 612.066406 591.0625 613.019531 591.140625 613.03125 C 591.402344 613.0625 591.585938 613.300781 591.554688 613.566406 C 591.527344 613.808594 591.320312 613.984375 591.082031 613.984375 " fill-opacity="1" fill-rule="nonzero"/><path fill="#723333" d="M 549.917969 601.726562 C 549.742188 601.726562 549.574219 601.632812 549.492188 601.464844 C 549.152344 600.785156 548.847656 599.304688 548.429688 597.257812 C 548.097656 595.636719 547.683594 593.617188 547.15625 591.601562 C 546.039062 587.3125 542.648438 581.4375 542.609375 581.378906 C 542.480469 581.152344 542.558594 580.859375 542.785156 580.726562 C 543.015625 580.59375 543.308594 580.671875 543.441406 580.898438 C 543.582031 581.144531 546.933594 586.945312 548.082031 591.359375 C 548.613281 593.398438 549.03125 595.433594 549.367188 597.066406 C 549.742188 598.894531 550.0625 600.472656 550.347656 601.035156 C 550.464844 601.269531 550.371094 601.558594 550.132812 601.675781 C 550.0625 601.710938 549.988281 601.726562 549.917969 601.726562 " fill-opacity="1" fill-rule="nonzero"/><path fill="#8c4949" d="M 221.917969 288.84375 C 221.917969 288.84375 193.550781 290.019531 180.914062 315.875 C 168.277344 341.730469 159.878906 388.824219 146.667969 412.957031 C 133.457031 437.089844 119.097656 453.179688 128.863281 465.246094 C 138.628906 477.3125 160.453125 476.164062 172.519531 459.5 C 184.578125 442.835938 209.855469 387.675781 217.894531 365.839844 C 225.9375 344.003906 238 303.210938 221.917969 288.84375 " fill-opacity="1" fill-rule="nonzero"/><path fill="#e2e2e2" d="M 221.832031 287.128906 C 221.832031 287.128906 197.273438 290.472656 184.820312 308.054688 C 172.367188 325.640625 163.089844 358.617188 163.089844 358.617188 L 157.839844 378.699219 C 157.839844 378.699219 192.632812 391.46875 208.871094 394.765625 C 208.871094 394.765625 224.253906 357.074219 228.648438 336.878906 C 234.386719 310.5 232.84375 291.605469 221.832031 287.128906 " fill-opacity="1" fill-rule="nonzero"/><path fill="#d8d7d6" d="M 223.683594 286.734375 C 231.042969 302.269531 231.953125 320.261719 230.253906 337.148438 C 228.460938 350.554688 218.714844 361.207031 217.488281 374.738281 C 216.300781 361.292969 225.429688 349.71875 227.015625 336.800781 C 228.523438 320.117188 228.1875 302.964844 223.683594 286.734375 " fill-opacity="1" fill-rule="nonzero"/><path fill="#8c4949" d="M 130.585938 440.539062 C 130.585938 440.539062 106.460938 460.648438 86.355469 492.828125 C 66.25 525.003906 47.296875 553.734375 42.699219 561.203125 C 38.105469 568.671875 49.019531 581.316406 63.953125 573.269531 C 78.890625 565.226562 157.007812 491.101562 172.519531 459.5 C 175.390625 448.582031 154.136719 425.023438 130.585938 440.539062 " fill-opacity="1" fill-rule="nonzero"/><path fill="#8c4949" d="M 43.65625 559.507812 C 43.65625 559.507812 39.351562 562.667969 28.4375 566.6875 C 20.070312 569.773438 9.773438 578.753906 6.324219 585.359375 C 2.878906 591.96875 0.0078125 598.863281 4.890625 598.863281 C 9.773438 598.863281 12.070312 593.691406 14.941406 591.394531 C 17.8125 589.09375 19.824219 587.945312 22.121094 587.660156 C 22.121094 587.660156 23.269531 594.554688 22.121094 598.289062 C 20.972656 602.023438 17.8125 606.042969 15.804688 606.90625 C 15.804688 606.90625 12.644531 599.4375 10.921875 598.574219 C 9.199219 597.710938 4.601562 599.722656 5.175781 603.457031 C 5.75 607.191406 8.050781 622.417969 11.207031 622.128906 C 14.367188 621.84375 20.972656 615.523438 24.417969 611.789062 C 24.417969 611.789062 21.832031 619.542969 17.527344 623.566406 C 13.21875 627.585938 4.601562 634.769531 6.902344 637.929688 C 9.199219 641.089844 19.25 633.621094 19.25 633.621094 C 19.25 633.621094 12.929688 641.664062 16.953125 643.386719 C 20.972656 645.109375 37.339844 626.726562 42.222656 618.105469 C 43.371094 616.671875 44.519531 615.234375 44.519531 615.234375 C 44.519531 615.234375 43.65625 623.851562 37.050781 633.621094 C 35.328125 636.78125 37.050781 640.515625 39.351562 639.652344 C 41.648438 638.789062 51.699219 624.140625 53.996094 615.523438 C 56.292969 606.90625 60.703125 577.554688 63.953125 573.269531 C 67.203125 568.988281 58.015625 552.324219 43.65625 559.507812 " fill-opacity="1" fill-rule="nonzero"/><path fill="#723333" d="M 22.121094 588.136719 C 21.855469 588.136719 21.640625 587.921875 21.640625 587.660156 C 21.640625 587.394531 21.855469 587.179688 22.121094 587.179688 C 22.238281 587.179688 34 587.109375 38.394531 581.335938 C 38.554688 581.125 38.855469 581.085938 39.066406 581.246094 C 39.277344 581.40625 39.316406 581.707031 39.15625 581.917969 C 34.472656 588.066406 22.621094 588.136719 22.121094 588.136719 " fill-opacity="1" fill-rule="nonzero"/><path fill="#723333" d="M 19.246094 634.097656 C 19.136719 634.097656 19.027344 634.0625 18.9375 633.984375 C 18.734375 633.8125 18.714844 633.507812 18.886719 633.308594 C 18.972656 633.207031 27.539062 623.214844 30.382812 620.085938 C 33.101562 617.089844 33.414062 612.382812 33.414062 612.335938 C 33.433594 612.070312 33.660156 611.867188 33.921875 611.886719 C 34.183594 611.902344 34.386719 612.125 34.371094 612.390625 C 34.359375 612.597656 34.039062 617.480469 31.089844 620.726562 C 28.253906 623.847656 19.699219 633.832031 19.613281 633.929688 C 19.515625 634.042969 19.382812 634.097656 19.246094 634.097656 " fill-opacity="1" fill-rule="nonzero"/><path fill="#723333" d="M 16.664062 611.691406 C 16.398438 611.691406 16.183594 611.480469 16.183594 611.214844 C 16.183594 609.863281 15.351562 607.070312 15.34375 607.042969 C 15.269531 606.789062 15.410156 606.523438 15.664062 606.445312 C 15.917969 606.371094 16.183594 606.515625 16.261719 606.765625 C 16.296875 606.886719 17.140625 609.722656 17.140625 611.214844 C 17.140625 611.480469 16.929688 611.691406 16.664062 611.691406 " fill-opacity="1" fill-rule="nonzero"/><path fill="#723333" d="M 45.09375 606.523438 C 44.828125 606.523438 44.613281 606.308594 44.613281 606.042969 C 44.613281 605.796875 44.625 605.5 44.640625 605.160156 C 44.71875 603.066406 44.867188 599.167969 42.917969 593.5625 C 40.601562 586.898438 41.984375 580.90625 42.042969 580.65625 C 42.105469 580.394531 42.363281 580.238281 42.617188 580.300781 C 42.875 580.359375 43.035156 580.617188 42.972656 580.875 C 42.960938 580.933594 41.601562 586.859375 43.820312 593.246094 C 45.832031 599.023438 45.679688 603.039062 45.59375 605.199219 C 45.582031 605.527344 45.570312 605.8125 45.570312 606.042969 C 45.570312 606.308594 45.359375 606.523438 45.09375 606.523438 " fill-opacity="1" fill-rule="nonzero"/></svg>